<?xml version="1.0" standalone="no"?>
<!DOCTYPE svg PUBLIC "-//W3C//DTD SVG 20010904//EN"
 "http://www.w3.org/TR/2001/REC-SVG-20010904/DTD/svg10.dtd">
<svg version="1.0" xmlns="http://www.w3.org/2000/svg"
 width="229.000000pt" height="229.000000pt" viewBox="0 0 229.000000 229.000000"
 preserveAspectRatio="xMidYMid meet">
<metadata>
Created by potrace 1.10, written by Peter Selinger 2001-2011
</metadata>
<g transform="translate(0.000000,229.000000) scale(0.100000,-0.100000)"
fill="#000000" stroke="none">
<path d="M1571 2066 c-8 -10 -13 -88 -14 -250 l-2 -236 61 0 c69 0 130 -18
187 -56 l37 -24 0 280 c0 266 -1 280 -19 290 -31 16 -236 13 -250 -4z m237
-258 c2 -187 0 -238 -10 -238 -7 1 -38 9 -68 20 -30 11 -71 19 -91 20 -20 0
-41 6 -47 13 -12 14 -11 395 2 415 5 9 35 12 109 10 l102 -3 3 -237z"/>
<path d="M1216 1844 c-15 -14 -16 -65 -14 -460 l3 -444 -37 0 -38 0 0 344 c0
300 -2 347 -16 360 -20 20 -223 23 -242 4 -9 -9 -12 -103 -12 -360 l0 -348
-40 0 -40 0 0 228 c0 164 -3 231 -12 240 -16 16 -220 16 -236 0 -9 -9 -12 -81
-12 -264 0 -216 2 -255 16 -268 13 -14 67 -16 431 -16 l415 0 -51 46 c-33 29
-62 69 -83 112 -31 63 -33 73 -33 177 0 101 3 115 29 170 37 76 111 149 181
181 l55 25 0 133 c0 89 -4 136 -12 144 -8 8 -50 12 -124 12 -90 0 -116 -3
-128 -16z m218 -20 c13 -5 16 -25 16 -115 l0 -108 -52 -34 c-29 -19 -75 -55
-103 -80 -27 -26 -53 -47 -57 -47 -8 0 -11 352 -2 374 5 13 22 16 94 16 49 0
95 -3 104 -6z m-340 -210 c3 -9 6 -161 6 -338 0 -322 0 -323 23 -343 39 -35
56 -36 88 -3 l30 30 24 -26 c14 -15 22 -30 19 -35 -8 -13 -474 -12 -474 1 0 6
11 10 24 10 17 0 28 9 40 34 13 28 15 80 15 351 0 252 2 320 13 326 7 5 52 9
99 9 70 0 88 -3 93 -16z m-348 -236 c5 -7 8 -106 9 -220 1 -199 2 -208 23
-231 12 -13 22 -26 22 -30 0 -13 -225 -8 -238 5 -13 13 -18 441 -6 472 5 13
23 16 94 16 60 0 91 -4 96 -12z"/>
<path d="M1505 1507 c-96 -32 -159 -87 -203 -176 -23 -48 -27 -68 -26 -136 2
-134 65 -239 179 -295 42 -21 65 -25 140 -25 109 0 162 21 229 90 155 159 101
438 -102 527 -57 26 -163 33 -217 15z m175 -30 c134 -49 203 -146 203 -287 0
-62 -5 -84 -27 -129 -31 -60 -72 -102 -131 -134 -33 -18 -56 -22 -130 -22 -80
1 -95 4 -140 29 -166 95 -203 326 -73 465 69 74 209 110 298 78z"/>
<path d="M1562 1444 c-12 -8 -22 -21 -22 -28 0 -7 -11 -19 -25 -26 -36 -19
-65 -71 -65 -115 0 -58 31 -98 100 -129 33 -15 58 -32 55 -37 -10 -14 -21 -11
-54 17 -21 17 -37 23 -51 19 -20 -6 -60 -51 -60 -66 0 -13 146 -159 159 -159
5 0 39 30 75 67 90 92 99 145 35 217 -30 34 -30 35 -9 46 48 26 41 79 -16 130
-16 14 -36 35 -44 47 -21 29 -51 36 -78 17z m58 -39 c0 -17 7 -28 23 -34 32
-13 69 -56 65 -78 -5 -28 -43 -27 -72 1 -30 31 -57 33 -82 5 -26 -29 -9 -50
58 -72 77 -25 108 -57 108 -114 0 -36 -6 -50 -29 -74 -16 -16 -36 -29 -45 -29
-9 0 -16 -11 -18 -27 -2 -22 -9 -29 -30 -31 -25 -3 -28 0 -28 25 0 23 -7 31
-40 45 -41 17 -67 55 -57 82 9 24 44 19 69 -9 38 -43 108 -30 108 21 0 18 -13
27 -72 50 -63 25 -76 34 -92 67 -16 34 -17 42 -4 75 9 25 26 44 51 57 26 14
37 27 37 43 0 17 6 22 25 22 20 0 25 -5 25 -25z"/>
<path d="M1248 681 c-15 -12 -29 -36 -32 -56 -5 -26 -12 -35 -26 -35 -16 0
-20 -7 -20 -31 0 -26 3 -29 20 -24 19 6 20 2 20 -109 l0 -116 40 0 40 0 0 116
0 117 30 -6 c28 -6 30 -5 30 27 0 31 -2 32 -31 28 -28 -4 -30 -2 -27 19 2 19
10 25 36 27 29 3 33 6 30 30 -3 24 -8 27 -44 30 -28 2 -47 -3 -66 -17z m32
-119 c0 -11 -7 -26 -16 -33 -14 -11 -18 -10 -30 6 -18 24 -18 34 2 56 14 15
18 16 30 4 8 -7 14 -22 14 -33z"/>
<path d="M1728 693 l-38 -4 0 -190 0 -189 40 0 40 0 0 195 c0 107 -1 194 -2
193 -2 -1 -20 -3 -40 -5z"/>
<path d="M1826 685 c-12 -12 -13 -21 -6 -36 13 -23 62 -26 81 -3 30 36 -41 73
-75 39z"/>
<path d="M160 500 l0 -190 40 0 40 0 0 65 0 65 50 0 c72 0 118 22 135 64 31
73 9 147 -50 172 -21 9 -69 14 -125 14 l-90 0 0 -190z m180 110 c45 -45 10
-110 -60 -110 l-40 0 0 65 0 65 40 0 c27 0 47 -7 60 -20z m-100 -140 c0 -12
-38 -42 -43 -33 -3 4 -5 28 -5 52 l-1 45 25 -29 c13 -15 24 -31 24 -35z"/>
<path d="M1007 625 c5 -33 4 -35 -21 -35 -22 0 -26 -4 -26 -30 0 -27 2 -30 25
-24 l25 6 0 -100 c0 -93 2 -102 22 -116 12 -9 42 -16 65 -16 41 0 43 1 43 30
0 22 -4 28 -15 24 -32 -13 -45 15 -45 98 l0 80 30 -7 c28 -6 30 -5 30 24 0 28
-3 31 -30 31 -28 0 -30 3 -30 35 0 34 -1 35 -39 35 l-40 0 6 -35z m53 -40 c11
-13 11 -20 0 -40 -17 -32 -24 -31 -39 1 -9 20 -9 30 0 40 15 18 24 18 39 -1z"/>
<path d="M543 589 c-91 -26 -124 -170 -54 -240 56 -56 148 -56 204 0 24 24 31
40 35 83 6 77 -16 123 -70 148 -47 21 -67 23 -115 9z m83 -57 c56 -37 34 -172
-27 -172 -70 0 -103 106 -52 163 16 17 59 23 79 9z"/>
<path d="M856 579 c-21 -17 -26 -18 -26 -5 0 11 -10 16 -32 16 l-33 0 0 -140
0 -140 38 0 37 0 0 100 c0 95 1 100 25 116 14 9 32 13 45 9 18 -6 20 -2 20 29
0 31 -3 36 -24 36 -13 0 -35 -9 -50 -21z"/>
<path d="M1444 581 c-94 -43 -100 -197 -10 -256 30 -20 104 -22 143 -3 15 7
38 29 51 48 20 29 23 44 20 93 -4 46 -10 63 -33 87 -27 28 -78 50 -115 50 -8
0 -33 -9 -56 -19z m112 -62 c29 -32 26 -115 -5 -140 -13 -10 -31 -19 -41 -19
-10 0 -28 9 -41 19 -19 16 -24 29 -24 69 0 59 24 92 65 92 15 0 35 -9 46 -21z"/>
<path d="M2013 580 c-65 -33 -91 -118 -59 -195 36 -85 160 -105 229 -37 54 55
47 179 -13 222 -44 31 -107 35 -157 10z m103 -48 c20 -13 34 -50 34 -87 0 -39
-35 -85 -65 -85 -67 0 -98 107 -48 162 16 18 59 24 79 10z"/>
<path d="M1820 450 l0 -140 40 0 40 0 0 140 0 140 -40 0 -40 0 0 -140z"/>
</g>
</svg>
